<svg width="20" height="20" viewBox="0 0 20 20" fill="none" xmlns="http://www.w3.org/2000/svg">
<path d="M14.6844 3.90646C14.2966 3.90602 13.9168 4.01751 13.5907 4.22755V3.43771C13.5907 2.93643 13.4054 2.45284 13.0704 2.07996C12.7354 1.70707 12.2743 1.47124 11.7759 1.41782C11.2775 1.3644 10.7769 1.49717 10.3705 1.79058C9.96405 2.084 9.68047 2.51733 9.57429 3.00724C9.26892 2.80021 8.91294 2.68026 8.54456 2.66026C8.17617 2.64026 7.8093 2.72097 7.48331 2.89372C7.15733 3.06647 6.88455 3.32474 6.69426 3.6408C6.50396 3.95686 6.40334 4.31878 6.40319 4.68771V10.2346L5.81491 9.28927C5.5469 8.82193 5.10421 8.4802 4.58424 8.33925C4.06426 8.19831 3.5096 8.26969 3.04226 8.53771C2.57492 8.80572 2.23318 9.24841 2.09224 9.76838C1.95129 10.2884 2.02268 10.843 2.29069 11.3104C4.74382 16.4846 6.13054 18.594 9.99694 18.594C11.7782 18.5919 13.486 17.8834 14.7455 16.6238C16.0051 15.3642 16.7136 13.6565 16.7157 11.8752V5.93771C16.7157 5.67096 16.6632 5.40682 16.5611 5.16038C16.459 4.91394 16.3094 4.69001 16.1208 4.50139C15.9321 4.31278 15.7082 4.16315 15.4618 4.06107C15.2153 3.95899 14.9512 3.90646 14.6844 3.90646ZM15.7782 11.8752C15.7763 13.4079 15.1666 14.8773 14.0828 15.9611C12.9991 17.0449 11.5297 17.6546 9.99694 17.6565C8.35632 17.6565 7.30085 17.2619 6.3446 16.2932C5.2946 15.2346 4.33601 13.4377 3.12976 10.8932L3.11179 10.8596C2.96675 10.6084 2.92745 10.3098 3.00254 10.0296C3.07762 9.74938 3.26095 9.51048 3.51218 9.36544C3.76341 9.2204 4.06197 9.1811 4.34217 9.25619C4.62238 9.33128 4.86128 9.5146 5.00632 9.76583L5.01413 9.77911L6.47351 12.1229C6.52724 12.2096 6.60778 12.2764 6.70292 12.3131C6.79805 12.3499 6.90259 12.3547 7.00067 12.3267C7.09874 12.2987 7.18501 12.2394 7.24637 12.1579C7.30774 12.0765 7.34085 11.9772 7.34069 11.8752V4.68771C7.34069 4.39762 7.45593 4.11942 7.66105 3.91431C7.86616 3.70919 8.14436 3.59396 8.43444 3.59396C8.72452 3.59396 9.00272 3.70919 9.20784 3.91431C9.41296 4.11942 9.52819 4.39762 9.52819 4.68771V9.37521C9.52819 9.49953 9.57758 9.61875 9.66549 9.70666C9.7534 9.79457 9.87262 9.84396 9.99694 9.84396C10.1213 9.84396 10.2405 9.79457 10.3284 9.70666C10.4163 9.61875 10.4657 9.49953 10.4657 9.37521V3.43771C10.4657 3.14762 10.5809 2.86942 10.786 2.66431C10.9912 2.45919 11.2694 2.34395 11.5594 2.34395C11.8495 2.34395 12.1277 2.45919 12.3328 2.66431C12.538 2.86942 12.6532 3.14762 12.6532 3.43771V9.37521C12.6532 9.49953 12.7026 9.61875 12.7905 9.70666C12.8784 9.79457 12.9976 9.84396 13.1219 9.84396C13.2463 9.84396 13.3655 9.79457 13.4534 9.70666C13.5413 9.61875 13.5907 9.49953 13.5907 9.37521V5.93771C13.5907 5.64762 13.7059 5.36942 13.911 5.16431C14.1162 4.95919 14.3944 4.84396 14.6844 4.84396C14.9745 4.84396 15.2527 4.95919 15.4578 5.16431C15.663 5.36942 15.7782 5.64762 15.7782 5.93771V11.8752Z" fill="#393847"/>
</svg>
